<?xml version="1.0" encoding="utf-8"?>
<!-- Generator: Adobe Illustrator 26.0.3, SVG Export Plug-In . SVG Version: 6.00 Build 0)  -->
<svg version="1.0" id="katman_1" xmlns="http://www.w3.org/2000/svg" xmlns:xlink="http://www.w3.org/1999/xlink" x="0px" y="0px"
	 viewBox="0 0 72 56" style="enable-background:new 0 0 72 56;" xml:space="preserve">
<style type="text/css">
	.st0{fill:#5EA0EF;}
	.st1{fill:#005BA1;}
	.st2{fill:#0078D4;}
	.st3{fill:#9CEBFF;}
	.st4{fill:#32BEDD;}
	.st5{fill:url(#SVGID_1_);}
	.st6{fill:#50E6FF;}
	.st7{fill:url(#SVGID_00000049202800428888422650000013001567582334699173_);}
	.st8{fill:url(#SVGID_00000077322308474445957140000014276557696649528255_);}
	.st9{fill:url(#SVGID_00000134940276075423303460000016469765478537801661_);}
</style>
<path class="st0" d="M32.4,20.5l-6.4,3.7l-6.4-3.7l6.4-3.7L32.4,20.5z"/>
<path class="st1" d="M32.4,37.3l-6.4-3.7v7.5L32.4,37.3z"/>
<path class="st2" d="M25.9,24.2L25.9,24.2L25.9,24.2l-6.4-3.7v16.9l6.4,3.7l6.4-3.7v0l-6.4,3.7v-7.5l6.4,3.7V20.5L25.9,24.2z"/>
<path class="st3" d="M39.1,20.5l6.4,3.7l6.4-3.7l-6.4-3.7L39.1,20.5z"/>
<path class="st4" d="M39.1,37.3l6.4-3.7v7.5L39.1,37.3z"/>
<linearGradient id="SVGID_1_" gradientUnits="userSpaceOnUse" x1="45.5614" y1="29.0931" x2="39.1227" y2="29.0931" gradientTransform="matrix(1 0 0 -1 0 58)">
	<stop  offset="0" style="stop-color:#32BEDD"/>
	<stop  offset="0.998" style="stop-color:#9CEBFF;stop-opacity:0.5"/>
</linearGradient>
<path class="st5" d="M45.6,24.2L45.6,24.2l0,9.4l-6.4,3.7V20.5L45.6,24.2z"/>
<path class="st3" d="M39.1,20.5l6.4,3.7l6.4-3.7l-6.4-3.7L39.1,20.5z"/>
<path class="st6" d="M45.6,24.2l-6.4-3.7v16.8l6.4-3.7v7.5l-6.4-3.7v0l6.4,3.7l6.4-3.7V20.5L45.6,24.2z"/>
<path class="st4" d="M39.1,37.3l6.4-3.7v7.5L39.1,37.3z"/>
<linearGradient id="SVGID_00000098901372394118380600000009883734691032457095_" gradientUnits="userSpaceOnUse" x1="45.5614" y1="29.0931" x2="39.1227" y2="29.0931" gradientTransform="matrix(1 0 0 -1 0 58)">
	<stop  offset="0" style="stop-color:#32BEDD"/>
	<stop  offset="0.998" style="stop-color:#9CEBFF;stop-opacity:0.5"/>
</linearGradient>
<path style="fill:url(#SVGID_00000098901372394118380600000009883734691032457095_);" d="M45.6,24.2L45.6,24.2l0,9.4l-6.4,3.7V20.5
	L45.6,24.2z"/>
<linearGradient id="SVGID_00000035501607673510482490000018354925258724038816_" gradientUnits="userSpaceOnUse" x1="25.9391" y1="29.0807" x2="32.3778" y2="29.0807" gradientTransform="matrix(1 0 0 -1 0 58)">
	<stop  offset="0" style="stop-color:#005BA1"/>
	<stop  offset="0.998" style="stop-color:#005BA1;stop-opacity:0"/>
</linearGradient>
<path style="fill:url(#SVGID_00000035501607673510482490000018354925258724038816_);" d="M25.9,24.2L25.9,24.2l0,9.4l6.4,3.7V20.5
	L25.9,24.2z"/>
<linearGradient id="SVGID_00000031905848529276007600000002398407825340564115_" gradientUnits="userSpaceOnUse" x1="25.9179" y1="28.7357" x2="45.5609" y2="28.7357" gradientTransform="matrix(1 0 0 -1 0 58)">
	<stop  offset="0" style="stop-color:#005BA1"/>
	<stop  offset="0.974" style="stop-color:#32BEDD"/>
</linearGradient>
<path style="fill:url(#SVGID_00000031905848529276007600000002398407825340564115_);" d="M45.5,30.7c-1.1,2.8-5.5,4.7-9.7,4.7h-0.1
	h-0.1c-4.1,0-8.5-1.9-9.7-4.7c0,0,0-2.8,0-3.1c0.8,3.1,5.1,5.5,9.6,5.5h0.2H36c4.4,0,8.7-2.3,9.6-5.5C45.6,27.9,45.5,30.7,45.5,30.7
	z M43.7,23.2c-2.2,1.8-4.9,2.7-7.7,2.7h-0.2h-0.2c-2.8,0-5.5-0.9-7.7-2.7l-1.5,0.9c1.5,2.5,5.5,4.1,9.3,4.1h0.3
	c3.8,0,7.9-1.6,9.4-4.1L43.7,23.2z"/>
</svg>
